<?xml version="1.0" encoding="UTF-8" standalone="no"?>
<svg width="150" height="32" viewBox="0 0 150 32" fill="none" xmlns="http://www.w3.org/2000/svg">
  <path d="M45.3425 24.4536C44.8146 24.6186 44.2867 24.6846 43.6928 24.6846C40.5583 24.6846 38.9415 22.9688 38.9415 20.1643V15.545H36.7969V12.5095H39.0075V8.74805H42.472V12.5095H45.4415V15.545H42.472V19.7353C42.472 21.1211 43.1979 21.649 44.5507 21.649C44.8476 21.649 45.1116 21.6161 45.3755 21.5501V24.4536H45.3425Z" fill="#014751"/>
  <path d="M50.7197 19.4704C50.9177 20.9221 52.1715 21.813 53.6892 21.813C54.7451 21.813 55.8339 21.2521 56.3618 20.3612L58.9024 22.011C57.8796 23.8257 56.1969 24.7166 53.7222 24.7166C51.8415 24.7166 50.3238 24.1227 49.037 22.9678C47.7832 21.78 47.1562 20.2622 47.1562 18.4145C47.1562 16.6988 47.7832 15.214 49.037 13.9932C50.2908 12.7724 51.8085 12.1455 53.5243 12.1455C55.306 12.1455 56.7248 12.7064 57.8466 13.7953C58.9354 14.8841 59.4963 16.3689 59.4963 18.1176C59.4963 18.6785 59.4633 19.1074 59.4633 19.3714H50.7197V19.4704ZM55.9659 17.1607C55.8669 16.1049 55.009 15.0821 53.3923 15.0821C52.6664 15.0821 52.0725 15.313 51.6106 15.7749C51.1486 16.2369 50.8847 16.6988 50.7857 17.1607H55.9659Z" fill="#014751"/>
  <path d="M66.2286 24.783C63.721 24.783 61.9723 23.8591 60.9824 22.0114L63.556 20.4936C64.0509 21.4505 64.9418 21.9454 66.2616 21.9454C67.1525 21.9454 67.7134 21.5495 67.7134 21.0545C67.7134 20.5596 67.3174 20.2297 65.7997 19.8997C62.9621 19.2728 61.5433 17.953 61.5433 16.0063C61.5433 14.9175 62.0053 13.9936 62.8961 13.3007C63.82 12.5749 64.9088 12.2119 66.1626 12.2119C68.3733 12.2119 69.99 13.1688 70.7819 14.6535L68.2413 16.1713C67.7794 15.4124 67.0865 15.0165 66.0636 15.0165C65.3377 15.0165 64.8098 15.4124 64.8098 15.9073C64.8098 16.4353 65.3377 16.7982 66.3936 16.9962C69.4291 17.6231 71.0129 18.8109 71.0129 20.8896C71.0129 23.1992 69.1652 24.783 66.2286 24.783Z" fill="#014751"/>
  <path d="M80.6453 24.4536C80.1174 24.6186 79.5894 24.6846 78.9955 24.6846C75.861 24.6846 74.2443 22.9688 74.2443 20.1643V15.545H72.0996V12.5095H74.3103V8.74805H77.7747V12.5095H80.7443V15.545H77.7747V19.7353C77.7747 21.1211 78.5006 21.649 79.8534 21.649C80.1504 21.649 80.4143 21.6161 80.6783 21.5501V24.4536H80.6453Z" fill="#014751"/>
  <path d="M86.2201 13.9931H86.2531C87.078 12.8383 88.3318 12.2773 89.9155 12.2773C91.5983 12.2773 92.9841 12.9042 94.0399 14.1581C95.0957 15.4119 95.6237 16.8636 95.6237 18.4804C95.6237 20.1301 95.0957 21.5489 93.9739 22.8357C92.8851 24.0895 91.4993 24.7164 89.8166 24.7164C88.2988 24.7164 87.111 24.1885 86.2531 23.1657H86.2201V30.4245H82.7227V12.5083H86.2201V13.9931ZM87.012 20.724C87.5729 21.2849 88.2988 21.5819 89.1237 21.5819C89.9485 21.5819 90.6744 21.2849 91.2353 20.724C91.7963 20.1301 92.0932 19.4042 92.0932 18.5134C92.0932 17.6225 91.7962 16.8966 91.2023 16.3357C90.6414 15.7748 89.9155 15.4778 89.0907 15.4778C88.2658 15.4778 87.5729 15.7748 87.012 16.3357C86.4511 16.8966 86.1541 17.6225 86.1541 18.5134C86.1541 19.3712 86.4511 20.1301 87.012 20.724Z" fill="#014751"/>
  <path d="M99.3219 14.0598C100.609 12.839 102.159 12.2451 104.007 12.2451C105.855 12.2451 107.373 12.839 108.626 14.0268C109.88 15.2147 110.507 16.6664 110.507 18.4482C110.507 20.2299 109.88 21.7476 108.593 22.9685C107.307 24.1563 105.756 24.7502 103.941 24.7502C102.093 24.7502 100.543 24.1563 99.2889 22.9685C98.0351 21.7806 97.4082 20.2959 97.4082 18.5141C97.4082 16.7654 98.0351 15.2477 99.3219 14.0598ZM101.863 20.7248C102.423 21.2857 103.149 21.5827 103.974 21.5827C105.657 21.5827 106.911 20.2959 106.911 18.5141C106.911 17.6233 106.614 16.8974 106.053 16.3365C105.492 15.7426 104.766 15.4456 103.941 15.4456C103.116 15.4456 102.423 15.7426 101.863 16.3365C101.302 16.8974 101.005 17.6233 101.005 18.5141C101.005 19.372 101.302 20.1309 101.863 20.7248Z" fill="#014751"/>
  <path d="M120.009 15.5445C119.811 15.5445 119.448 15.5445 119.151 15.5445C116.874 15.5445 115.884 17.0622 115.884 19.2069V24.4861H112.387V12.5089H115.884V14.3566H115.917C116.445 13.2678 117.699 12.377 119.316 12.377C119.613 12.377 119.844 12.4099 120.009 12.4759V15.5445Z" fill="#014751"/>
  <path d="M129.344 24.4536C128.816 24.6186 128.288 24.6846 127.695 24.6846C124.56 24.6846 122.943 22.9688 122.943 20.1643V15.545H120.766V12.5095H122.976V8.74805H126.441V12.5095H129.41V15.545H126.441V19.7353C126.441 21.1211 127.167 21.649 128.519 21.649C128.816 21.649 129.08 21.6161 129.344 21.5501V24.4536Z" fill="#014751"/>
  <path d="M140.564 23.0997C139.739 24.1885 138.551 24.7164 136.868 24.7164C135.186 24.7164 133.8 24.1225 132.744 22.8687C131.688 21.6149 131.16 20.1631 131.16 18.4804C131.16 16.8966 131.688 15.4449 132.777 14.191C133.866 12.9042 135.252 12.2773 136.901 12.2773C138.419 12.2773 139.607 12.8053 140.531 13.8941H140.564V12.5083H144.061V24.5184H140.564V23.0997ZM137.66 15.4449C135.977 15.4449 134.691 16.6987 134.691 18.4804C134.691 19.3712 134.988 20.1301 135.548 20.691C136.109 21.252 136.835 21.5489 137.66 21.5489C138.485 21.5489 139.211 21.252 139.772 20.691C140.333 20.0971 140.63 19.3712 140.63 18.4804C140.63 16.6987 139.343 15.4449 137.66 15.4449Z" fill="#014751"/>
  <path d="M149.999 24.5192H146.469V6.20703H149.999V24.5192Z" fill="#014751"/>
  <path fill-rule="evenodd" clip-rule="evenodd" d="M14.6386 0.631799C17.6658 0.483535 20.5528 1.23162 22.9956 2.6597C23.8608 3.16553 24.1522 4.27699 23.6463 5.14222C23.1405 6.00745 22.029 6.29881 21.1638 5.79298C19.3189 4.71444 17.127 4.14277 14.8113 4.25713L14.7988 4.2577C8.75791 4.51416 3.83613 9.48484 3.63467 15.5672C3.43629 22.3407 8.94759 27.852 15.7211 27.6536C21.8301 27.4523 26.8291 22.4749 27.0298 16.3776C27.0584 15.3961 26.9711 14.4241 26.7739 13.5228L26.7706 13.5074C26.6497 12.9307 25.85 12.624 25.3426 13.1314L18.3477 20.1263C16.4841 21.9898 13.4544 21.9898 11.5909 20.1263L11.5853 20.1207L7.82391 16.3262C7.11832 15.6145 7.12333 14.4655 7.83511 13.7599C8.54689 13.0543 9.6959 13.0593 10.4015 13.7711L14.1573 17.5599C14.158 17.5606 14.1587 17.5613 14.1594 17.562C14.6057 18.006 15.3358 18.0053 15.7813 17.5599L22.7762 10.565C25.2368 8.10437 29.5803 9.2464 30.3214 12.7558C30.5845 13.9625 30.6946 15.2299 30.6576 16.4878L30.6574 16.4938C30.395 24.5162 23.8478 31.0191 15.837 31.2812L15.8312 31.2814C6.96755 31.5431 -0.254897 24.3207 0.00689976 15.457L0.00708793 15.451C0.269013 7.48097 6.69354 0.972365 14.6386 0.631799Z" fill="#64DB9B"/>
</svg>
